<svg width="45" height="49" viewBox="0 0 45 49" fill="none" xmlns="http://www.w3.org/2000/svg">
<path d="M18.07 32.14V31.15H20.435V34.318L19.159 35.055H16.266L14.99 34.318V27.982L16.266 27.245H19.159L20.435 27.982V29.225H19.335V28.235H16.09V34.065H19.335V32.14H18.07ZM23.5129 29.181V35H22.4129V27.3H23.4139L27.3959 33.119H27.4179V27.3H28.5179V35H27.5169L23.5349 29.181H23.5129ZM30.5017 35V27.3H34.3407L35.6167 28.037V31.304L34.3407 32.041H31.6017V35H30.5017ZM31.6017 28.29V31.051H34.5167V28.29H31.6017Z" fill="white"/>
<path d="M29.16 36.2H34.76V42.528L28.264 46.28H13.536L7.04 42.528V10.272L13.536 6.52H28.264L34.76 10.272V16.6H29.16V11.56H12.64V41.24H29.16V36.2Z" fill="white"/>
</svg>
